<svg version="1.1" id="Layer_1" xmlns="http://www.w3.org/2000/svg" xmlns:xlink="http://www.w3.org/1999/xlink" x="0px" y="0px"
	 width="100%" viewBox="0 0 1000 1000" enable-background="new 0 0 1000 1000" xml:space="preserve">
<path fill="#FFFFFF" opacity="1.000000" stroke="none" 
	d="
M492.000000,1001.000000 
	C328.000000,1001.000000 164.500000,1001.000000 1.000000,1001.000000 
	C1.000000,667.666687 1.000000,334.333344 1.000000,1.000000 
	C334.333344,1.000000 667.666687,1.000000 1001.000000,1.000000 
	C1001.000000,334.333344 1001.000000,667.666687 1001.000000,1001.000000 
	C831.500000,1001.000000 662.000000,1001.000000 492.000000,1001.000000 
M647.597839,362.253601 
	C647.597839,362.253601 647.929871,362.319794 648.157288,362.675842 
	C648.157288,362.675842 648.529785,362.874969 648.680176,363.360687 
	C649.079102,363.642883 649.478027,363.925079 649.902710,364.093781 
	C649.902710,364.093781 649.787598,364.110535 649.895264,364.848846 
	C650.975037,367.545868 652.054810,370.242920 653.084595,373.653473 
	C653.215393,374.108185 653.346191,374.562897 653.287048,375.931641 
	C653.362549,404.540344 653.380737,433.149475 653.589233,461.757202 
	C653.614136,465.173981 654.213684,468.749786 655.370483,471.954590 
	C656.889221,476.162079 660.247253,478.513550 665.693787,478.708038 
	C666.484070,478.732300 667.274414,478.756561 668.766602,478.988922 
	C669.484680,478.907684 670.202759,478.826447 671.630859,478.831665 
	C672.091553,478.731171 672.552307,478.630676 673.740540,478.717804 
	C677.601440,478.411591 680.594543,476.840790 681.997192,473.003082 
	C681.997192,473.003082 682.024536,473.044220 682.580811,472.555817 
	C683.204651,468.813690 684.315918,465.078217 684.366882,461.328308 
	C684.572998,446.167755 684.272827,431.000031 684.502380,415.840149 
	C684.739014,400.212921 685.373901,384.591736 685.976990,368.875854 
	C685.976990,368.875854 685.940308,368.710327 686.182678,368.677460 
	C686.182678,368.677460 686.137878,368.323730 686.598755,367.618988 
	C686.722778,367.074219 686.846863,366.529449 687.226929,365.613770 
	C687.226929,365.613770 687.250122,365.163666 687.121887,365.078003 
	C687.121887,365.078003 687.197205,365.212585 687.798584,364.971954 
	C688.286072,364.034363 688.773560,363.096771 689.130371,362.120911 
	C689.130371,362.120911 689.147461,362.255951 689.737854,362.182281 
	C690.159790,361.787720 690.581665,361.393188 691.000000,361.000000 
	C691.000000,361.000000 690.997803,361.003021 691.618591,360.862976 
	C692.245728,360.298737 692.872864,359.734497 693.767456,359.217072 
	C693.767456,359.217072 693.983765,359.052826 694.825378,359.006287 
	C699.204224,358.743622 703.583008,358.480927 708.569092,358.643127 
	C709.050110,358.739838 709.531128,358.836548 710.419067,359.162750 
	C710.419067,359.162750 710.884827,359.198914 710.971069,359.116486 
	C710.971069,359.116486 710.853638,359.137543 711.171692,359.663635 
	C711.740906,359.857941 712.310181,360.052246 712.914734,360.133698 
	C712.914734,360.133698 712.797058,360.145508 712.964600,360.668365 
	C713.280029,360.834656 713.595459,361.000916 713.915833,361.069214 
	C713.915833,361.069214 713.821960,361.097717 713.993591,361.695618 
	C714.629944,362.190186 715.266296,362.684753 715.925903,363.083893 
	C715.925903,363.083893 715.828308,363.095490 715.961975,363.629883 
	C716.254944,363.823700 716.547913,364.017487 716.840149,364.092773 
	C716.840149,364.092773 716.733093,364.143707 716.758972,364.755554 
	C717.118286,365.223236 717.477539,365.690918 717.894836,366.061462 
	C717.894836,366.061462 717.786255,366.093201 717.812317,366.823090 
	C718.272339,368.197906 718.732300,369.572723 719.161194,371.685028 
	C719.339966,372.136597 719.518738,372.588135 719.435120,373.932739 
	C719.452759,403.862274 719.399292,433.792297 719.588928,463.720734 
	C719.609802,467.014404 721.024109,470.299255 721.663513,473.773773 
	C721.663513,473.773773 721.773865,473.970795 721.843689,474.702576 
	C723.544983,476.180267 725.246338,477.657928 726.970215,479.044922 
	C726.970215,479.044922 726.888855,479.090942 727.263367,479.636475 
	C728.509277,479.945801 729.755249,480.255096 731.649841,480.819427 
	C732.111877,480.823181 732.573853,480.826935 733.840637,481.023834 
	C735.208557,480.949066 736.576416,480.874268 738.645813,480.879852 
	C739.097839,480.767731 739.549927,480.655640 740.703735,480.656799 
	C746.063477,479.793488 748.728149,476.204620 749.726257,471.273621 
	C750.282349,468.526337 750.453796,465.658569 750.445007,462.846191 
	C750.349365,432.404694 750.450684,401.958313 749.872375,371.525146 
	C749.701050,362.511047 748.363037,353.288147 742.094666,345.907501 
	C742.094666,345.907501 742.194580,345.902466 742.126343,345.212982 
	C740.809143,343.739960 739.491943,342.266968 738.048889,340.959625 
	C738.048889,340.959625 738.207275,340.824799 738.009521,340.187164 
	C731.698425,332.867767 723.123962,330.645081 714.056824,329.914886 
	C703.959412,329.101715 693.923889,329.218018 684.977844,334.968414 
	C684.977844,334.968414 684.957214,334.882904 684.288574,334.921539 
	C683.214600,335.628693 682.140625,336.335846 681.011841,336.997101 
	C681.011841,336.997101 681.037354,337.063873 680.374451,337.184662 
	C677.963196,339.794067 675.551941,342.403503 672.908325,345.262726 
	C672.908325,345.262726 672.858826,345.600281 672.254211,345.983643 
	C671.176208,347.493774 670.098206,349.003876 668.843323,350.761841 
	C667.060608,348.514130 665.600220,346.672821 664.083801,344.911743 
	C664.083801,344.911743 664.181641,344.912933 664.100708,344.214478 
	C662.132019,342.384125 660.163391,340.553802 658.115845,338.806335 
	C658.115845,338.806335 658.230225,338.809174 658.089417,338.271301 
	C657.763733,338.116241 657.438110,337.961212 657.084839,337.897156 
	C657.084839,337.897156 657.178955,337.883545 656.994934,337.369476 
	C656.677673,337.210693 656.360413,337.051910 656.042725,336.977234 
	C656.042725,336.977234 656.109863,336.926636 655.844177,336.311462 
	C645.727844,329.527100 634.344421,328.524719 622.832092,330.160828 
	C617.331848,330.942535 612.136780,333.872009 606.887756,335.886078 
	C606.887756,335.886078 606.901001,335.785065 606.229980,335.831299 
	C605.422729,336.515991 604.615417,337.200714 603.905640,337.904938 
	C603.905640,337.904938 603.882996,337.808136 603.344666,337.942078 
	C603.157166,338.240234 602.969604,338.538391 602.893372,338.836365 
	C602.893372,338.836365 602.839783,338.738831 602.254761,338.802551 
	C601.858093,339.211639 601.461426,339.620728 600.571960,340.222260 
	C600.394836,340.517273 600.217712,340.812286 599.515259,341.360931 
	C599.266296,341.867218 599.017273,342.373505 598.870056,342.847504 
	C598.870056,342.847504 598.794312,342.772217 598.158142,342.968628 
	C597.366333,344.274353 596.574463,345.580078 595.887207,346.888733 
	C595.887207,346.888733 595.827332,346.802979 595.216614,347.077515 
	C593.237427,351.969513 590.301819,356.709106 589.492554,361.787567 
	C588.115417,370.430206 587.634766,379.282074 587.557007,388.052917 
	C587.325317,414.163483 587.446716,440.277405 587.486633,466.389954 
	C587.499756,475.011383 591.183228,479.409393 599.626221,480.757904 
	C600.098267,480.776642 600.570312,480.795380 601.843811,481.016724 
	C603.210327,480.941650 604.576843,480.866577 606.648682,480.869110 
	C607.099609,480.745972 607.550598,480.622803 608.672363,480.596222 
	C610.171448,479.778137 611.670532,478.960052 613.103699,478.067261 
	C613.103699,478.067261 613.088684,478.165741 613.632507,478.041931 
	C613.822815,477.742126 614.013062,477.442352 614.095398,477.117035 
	C614.095398,477.117035 614.149719,477.213745 614.694885,477.085327 
	C614.864502,476.767792 615.034180,476.450287 615.107300,476.172699 
	C615.107300,476.172699 615.201050,476.218750 615.858948,475.955536 
	C616.786316,472.008636 618.483276,468.068329 618.517151,464.113739 
	C618.751526,436.705750 618.724182,409.294342 618.578369,381.885132 
	C618.543274,375.294983 619.125244,368.975067 622.708435,362.819550 
	C622.801636,362.677216 622.894775,362.534882 623.447998,362.276642 
	C623.686829,361.878082 623.925598,361.479492 624.073608,361.057281 
	C624.073608,361.057281 624.078369,361.151031 624.612000,361.016418 
	C624.808960,360.724945 625.005981,360.433441 625.085449,360.137299 
	C625.085449,360.137299 625.127197,360.247192 625.738159,360.199463 
	C626.209351,359.848358 626.680603,359.497284 627.069885,359.094910 
	C627.069885,359.094910 627.070374,359.191559 627.908630,359.131409 
	C634.168274,357.146362 640.249756,357.449524 646.312805,360.872223 
	C646.312805,360.872223 646.648743,361.048920 646.584351,361.249359 
	C646.584351,361.249359 646.930786,361.322388 647.230957,361.764526 
	C647.378601,361.864166 647.526306,361.963776 647.597839,362.253601 
M649.011841,574.504517 
	C649.012024,598.832581 648.989990,623.160706 649.024414,647.488708 
	C649.036377,655.976562 652.267944,661.876099 658.274048,663.459961 
	C661.252380,664.245422 664.538269,663.996704 667.684265,663.987061 
	C673.860413,663.968140 678.244690,660.265198 678.905884,654.245667 
	C679.484314,648.979004 679.905884,643.666565 679.928894,638.372314 
	C680.040466,612.711670 679.963257,587.050354 680.023132,561.389404 
	C680.041077,553.685913 684.474304,546.359619 690.729431,544.271729 
	C702.156616,540.457397 714.520935,544.591492 714.933044,561.013367 
	C715.250671,573.669312 714.999207,586.339600 714.999878,599.003479 
	C715.000732,616.333069 714.953918,633.662781 715.023132,650.992126 
	C715.052979,658.465637 717.795166,663.847351 723.085205,665.014832 
	C729.621399,666.457214 737.141602,668.654541 742.002380,662.123230 
	C744.545837,658.705627 745.804199,653.529907 745.803162,649.148682 
	C745.795837,617.194946 745.641052,585.232910 744.801636,553.292786 
	C744.544373,543.503601 741.404907,534.154236 734.216370,526.538452 
	C727.632751,519.563538 719.594482,516.713013 710.395142,515.558044 
	C698.277405,514.036621 686.595581,515.379761 676.560791,522.309326 
	C671.398376,525.874207 667.849792,531.776184 663.653076,536.530212 
	C662.064331,534.016052 660.337524,530.368835 657.791931,527.431091 
	C650.863281,519.435181 641.440002,516.220581 631.280090,515.325867 
	C617.777710,514.136719 605.041809,516.269043 595.043823,526.509644 
	C585.831116,535.945801 583.506775,548.320068 583.237732,560.537537 
	C582.562927,591.182678 582.969727,621.852783 583.044983,652.512573 
	C583.061707,659.318726 587.045837,664.563538 593.039490,665.758179 
	C595.611389,666.270752 598.347839,666.018738 601.009155,666.009888 
	C607.793701,665.987305 612.186340,663.127869 612.904724,656.503357 
	C613.886047,647.454346 613.890747,638.277832 613.941589,629.153870 
	C614.069641,606.159607 613.938110,583.164001 614.017578,560.169250 
	C614.048706,551.150208 618.762817,544.958313 627.331604,543.491211 
	C635.565430,542.081482 643.839233,544.197021 646.291870,553.005676 
	C648.122986,559.582092 648.170288,566.655212 649.011841,574.504517 
M393.665405,480.179688 
	C414.917969,477.427002 428.116547,465.097839 433.687714,444.951965 
	C436.322388,435.424652 437.579285,425.395691 438.374481,415.506714 
	C439.809570,397.660370 438.676056,379.881744 433.083374,362.720825 
	C427.728577,346.289917 416.824646,334.990112 399.576599,331.898376 
	C389.887360,330.161560 379.652985,329.791748 369.845917,330.722046 
	C346.813873,332.906830 333.498596,346.687378 327.889893,368.709198 
	C323.558868,385.714233 323.050812,403.018005 324.651672,420.259460 
	C325.609711,430.577423 327.904785,440.996826 331.235779,450.815308 
	C336.068054,465.058990 346.489014,474.412048 361.116821,478.546234 
	C371.504883,481.482178 382.119080,481.759827 393.665405,480.179688 
M357.555267,664.067261 
	C369.690308,667.132446 382.044006,667.221252 394.093567,664.631104 
	C409.440857,661.332031 420.332672,652.204651 426.581360,637.294495 
	C430.712311,627.437500 432.111115,617.310730 433.150055,606.880249 
	C434.974884,588.560364 434.652710,570.358093 429.831543,552.576172 
	C425.237457,535.631775 415.815277,522.664307 397.626587,517.969299 
	C387.226288,515.284668 376.904724,514.414978 366.156677,515.872498 
	C341.086304,519.272278 328.763794,531.846191 323.261383,554.606934 
	C318.000244,576.369507 318.250580,598.648254 322.119934,620.660522 
	C325.723541,641.161377 335.170929,657.562012 357.555267,664.067261 
M526.610535,423.898895 
	C527.792542,427.121979 529.820618,430.297974 530.003113,433.576691 
	C530.631287,444.864258 530.657043,456.187103 530.830078,467.497742 
	C530.971985,476.768768 535.614441,480.973877 545.992981,481.065582 
	C556.286987,481.156586 560.940979,476.990112 561.012817,467.432404 
	C561.086731,457.606903 560.926025,447.778931 561.068542,437.954926 
	C561.164917,431.313080 558.974243,425.560242 555.043823,420.369659 
	C553.666870,418.551208 552.133728,416.851013 550.458801,414.841156 
	C556.598877,409.437469 560.762390,402.849030 561.663757,395.105743 
	C562.717590,386.053436 563.280212,376.793671 562.637573,367.724396 
	C561.149231,346.720093 549.360779,334.099579 528.562988,330.923584 
	C521.392578,329.828613 513.940369,329.773071 506.678375,330.226685 
	C478.948486,331.958832 463.759583,346.091980 463.253235,371.835297 
	C462.618011,404.131836 463.053711,436.449432 463.027405,468.757935 
	C463.023987,472.945862 464.774353,476.342407 468.395508,478.287872 
	C474.805847,481.731842 481.620209,481.938171 488.073486,478.660461 
	C493.701935,475.801697 493.643951,470.066162 493.701721,464.672821 
	C493.803314,455.182953 493.666901,445.685577 494.012299,436.205261 
	C494.195526,431.175964 495.317413,426.154175 499.874512,423.003723 
	C506.209015,418.624512 519.336975,418.895538 526.610535,423.898895 
M554.588440,613.185425 
	C551.863586,608.705933 549.138794,604.226440 546.712402,600.237610 
	C549.586731,595.681824 553.382935,591.580139 554.993591,586.749756 
	C559.661560,572.749939 559.362671,558.187317 556.290161,543.984924 
	C553.402405,530.636719 544.536804,522.058960 531.369568,517.922485 
	C516.410461,513.223083 501.453827,514.378296 486.751068,518.393433 
	C475.391693,521.495544 466.209167,528.242737 462.307465,539.895508 
	C460.122375,546.421631 458.308258,553.423584 458.212921,560.237488 
	C457.781799,591.054199 457.954681,621.880615 458.069427,652.702942 
	C458.099304,660.732544 463.233337,665.629211 471.281494,665.979492 
	C473.110657,666.059143 474.949493,666.059875 476.778473,665.977417 
	C484.758942,665.617676 488.953705,661.274475 488.984833,653.292297 
	C489.022552,643.629150 488.964996,633.965515 489.007843,624.302368 
	C489.061890,612.108521 493.354340,606.539856 505.357025,605.257935 
	C516.484924,604.069580 523.729858,606.217773 525.690125,618.642944 
	C525.921814,620.111511 525.979004,621.619934 525.982971,623.110229 
	C526.009155,632.940063 525.960938,642.770264 526.011536,652.599976 
	C526.055054,661.044800 530.947693,665.958069 539.251465,666.018921 
	C541.084106,666.032349 542.917297,666.046570 544.749451,666.012878 
	C551.625610,665.886414 555.965515,661.619568 556.001343,654.767578 
	C556.061523,643.271790 556.074463,631.774963 555.966431,620.279907 
	C555.946533,618.164917 555.258545,616.056335 554.588440,613.185425 
M299.016571,582.533203 
	C297.634064,573.062012 297.149750,563.346252 294.653412,554.178345 
	C291.122406,541.210510 283.937866,529.896851 272.124451,522.937317 
	C257.834961,514.519043 242.033188,512.924255 225.967178,516.608215 
	C203.059998,521.860901 194.947662,535.942688 194.285309,556.705383 
	C193.255569,588.985046 193.966812,621.321777 194.049286,653.634033 
	C194.066635,660.436523 198.405579,665.021057 204.702621,664.940491 
	C220.320404,664.740662 236.021591,665.238037 251.530060,663.771545 
	C271.460663,661.886841 285.673706,651.215759 293.139709,632.126892 
	C299.294067,616.391663 299.390656,600.005554 299.016571,582.533203 
M215.728577,337.177521 
	C206.849609,343.230865 201.713837,351.693665 199.902191,362.180969 
	C199.310379,365.606720 198.922440,369.115143 198.914474,372.586853 
	C198.841476,404.394226 198.856918,436.201813 198.885681,468.009338 
	C198.892181,475.202911 202.018570,479.080383 208.122574,479.115387 
	C222.775772,479.199371 237.442978,479.462128 252.081039,478.963318 
	C276.120819,478.144073 293.960510,463.506927 299.986572,440.217438 
	C305.771271,417.860870 305.674225,395.314941 300.448120,372.986816 
	C291.522064,334.850647 249.208801,316.868591 215.728577,337.177521 
M778.368835,415.499969 
	C778.368713,429.983765 778.340759,444.467651 778.389587,458.951294 
	C778.400757,462.268799 778.449036,465.614807 778.873047,468.896942 
	C780.068420,478.150391 785.666626,481.802002 797.056641,480.999359 
	C805.295410,480.418793 809.087158,476.096466 809.094604,467.084198 
	C809.118958,437.783630 809.103699,408.483032 809.103577,379.182465 
	C809.103516,367.029388 809.116516,354.876282 809.096863,342.723236 
	C809.088684,337.673340 807.297363,333.596069 802.448730,331.406189 
	C789.473145,325.545685 778.839783,332.038208 778.374329,346.076569 
	C778.341248,347.074432 778.364929,348.074219 778.364990,349.073090 
	C778.366333,370.882050 778.367920,392.690979 778.368835,415.499969 
M790.440918,666.025879 
	C800.851318,666.571960 804.588928,663.066956 804.743164,652.029602 
	C805.315552,611.059509 805.097839,570.075623 804.758118,529.100342 
	C804.727417,525.403137 802.625000,520.627563 799.852905,518.278748 
	C794.236755,513.520142 787.132019,513.711914 780.560364,516.835144 
	C774.530334,519.701050 773.986206,525.459167 773.989807,531.331543 
	C774.014099,570.976990 773.998779,610.622498 774.004700,650.267944 
	C774.006409,661.535095 778.400818,665.985901 790.440918,666.025879 
z"/>
<path fill="#F3D2F4" opacity="1.000000" stroke="none" 
	d="
M649.011902,574.005859 
	C648.170288,566.655212 648.122986,559.582092 646.291870,553.005676 
	C643.839233,544.197021 635.565430,542.081482 627.331604,543.491211 
	C618.762817,544.958313 614.048706,551.150208 614.017578,560.169250 
	C613.938110,583.164001 614.069641,606.159607 613.941589,629.153870 
	C613.890747,638.277832 613.886047,647.454346 612.904724,656.503357 
	C612.186340,663.127869 607.793701,665.987305 601.009155,666.009888 
	C598.347839,666.018738 595.611389,666.270752 593.039490,665.758179 
	C587.045837,664.563538 583.061707,659.318726 583.044983,652.512573 
	C582.969727,621.852783 582.562927,591.182678 583.237732,560.537537 
	C583.506775,548.320068 585.831116,535.945801 595.043823,526.509644 
	C605.041809,516.269043 617.777710,514.136719 631.280090,515.325867 
	C641.440002,516.220581 650.863281,519.435181 657.791931,527.431091 
	C660.337524,530.368835 662.064331,534.016052 663.653076,536.530212 
	C667.849792,531.776184 671.398376,525.874207 676.560791,522.309326 
	C686.595581,515.379761 698.277405,514.036621 710.395142,515.558044 
	C719.594482,516.713013 727.632751,519.563538 734.216370,526.538452 
	C741.404907,534.154236 744.544373,543.503601 744.801636,553.292786 
	C745.641052,585.232910 745.795837,617.194946 745.803162,649.148682 
	C745.804199,653.529907 744.545837,658.705627 742.002380,662.123230 
	C737.141602,668.654541 729.621399,666.457214 723.085205,665.014832 
	C717.795166,663.847351 715.052979,658.465637 715.023132,650.992126 
	C714.953918,633.662781 715.000732,616.333069 714.999878,599.003479 
	C714.999207,586.339600 715.250671,573.669312 714.933044,561.013367 
	C714.520935,544.591492 702.156616,540.457397 690.729431,544.271729 
	C684.474304,546.359619 680.041077,553.685913 680.023132,561.389404 
	C679.963257,587.050354 680.040466,612.711670 679.928894,638.372314 
	C679.905884,643.666565 679.484314,648.979004 678.905884,654.245667 
	C678.244690,660.265198 673.860413,663.968140 667.684265,663.987061 
	C664.538269,663.996704 661.252380,664.245422 658.274048,663.459961 
	C652.267944,661.876099 649.036377,655.976562 649.024414,647.488708 
	C648.989990,623.160706 649.012024,598.832581 649.011902,574.005859 
z"/>
<path fill="#D85797" opacity="1.000000" stroke="none" 
	d="
M733.035889,480.830688 
	C732.573853,480.826935 732.111877,480.823181 731.218933,480.371948 
	C729.488281,479.646637 728.188599,479.368774 726.888855,479.090942 
	C726.888855,479.090942 726.970215,479.044922 726.850708,478.771240 
	C725.078674,476.988647 723.426270,475.479736 721.773865,473.970825 
	C721.773865,473.970795 721.663513,473.773773 721.785522,473.205139 
	C721.607483,465.193695 721.083252,457.751892 721.048706,450.307831 
	C720.937622,426.357269 721.035400,402.405731 720.950562,378.454956 
	C720.944153,376.648438 720.134033,374.844727 719.697510,373.039703 
	C719.518738,372.588135 719.339966,372.136597 719.403320,371.090332 
	C719.025757,369.028168 718.406006,367.560699 717.786255,366.093201 
	C717.786255,366.093201 717.894836,366.061462 717.897522,365.780457 
	C717.511169,365.047577 717.122131,364.595642 716.733093,364.143707 
	C716.733093,364.143707 716.840149,364.092773 716.786621,363.878967 
	C716.431519,363.475311 716.129944,363.285400 715.828308,363.095490 
	C715.828308,363.095490 715.925903,363.083893 715.840088,362.822510 
	C715.110107,362.073334 714.466064,361.585541 713.821960,361.097717 
	C713.821960,361.097717 713.915833,361.069214 713.829041,360.854156 
	C713.427185,360.474579 713.112122,360.310059 712.797058,360.145508 
	C712.797058,360.145508 712.914734,360.133698 712.784058,359.881531 
	C712.053467,359.465424 711.453552,359.301483 710.853638,359.137543 
	C710.853638,359.137543 710.971069,359.116486 710.905457,358.961365 
	C710.563965,358.848572 710.288025,358.890930 710.012146,358.933289 
	C709.531128,358.836548 709.050110,358.739838 708.124512,358.149597 
	C702.792664,354.965912 698.249878,355.652679 693.983765,359.052826 
	C693.983765,359.052826 693.767456,359.217072 693.261963,359.168427 
	C692.170288,359.747528 691.584045,360.375305 690.997803,361.003052 
	C690.997803,361.003021 691.000000,361.000000 690.689209,361.021973 
	C689.968140,361.447937 689.557800,361.851959 689.147461,362.255981 
	C689.147461,362.255951 689.130371,362.120911 688.849243,362.210266 
	C688.111206,363.270630 687.654236,364.241608 687.197205,365.212585 
	C687.197205,365.212585 687.121887,365.078003 686.983276,365.125488 
	C686.739990,365.250580 686.635254,365.328217 686.530518,365.405823 
	C686.677307,365.598816 686.824097,365.791748 686.970886,365.984680 
	C686.846863,366.529449 686.722778,367.074219 686.345398,368.035736 
	C686.092041,368.452484 685.940308,368.710327 685.940308,368.710327 
	C685.940308,368.710327 685.976990,368.875854 685.595825,369.134460 
	C684.476196,372.888367 683.146606,376.374512 683.091980,379.880493 
	C682.607727,410.933075 682.349487,441.989166 682.024536,473.044220 
	C682.024536,473.044220 681.997192,473.003082 681.663696,473.035400 
	C678.557739,474.888519 675.785339,476.709351 673.013000,478.530182 
	C672.552307,478.630676 672.091553,478.731171 671.085449,478.586487 
	C669.714905,478.487793 668.889771,478.634338 668.064697,478.780884 
	C667.274414,478.756561 666.484070,478.732300 665.227234,478.253235 
	C657.032959,475.304321 654.954163,469.431702 654.975708,462.016449 
	C655.054871,434.766144 655.031311,407.515320 654.935547,380.265106 
	C654.929382,378.514252 653.984924,376.766724 653.476929,375.017639 
	C653.346191,374.562897 653.215393,374.108185 653.354553,373.067047 
	C652.345581,369.690582 651.066589,366.900543 649.787598,364.110535 
	C649.787598,364.110535 649.902710,364.093781 649.838745,363.895477 
	C649.359741,363.423096 648.944763,363.149017 648.529785,362.874969 
	C648.529785,362.874969 648.157288,362.675842 647.986755,362.474243 
	C647.816223,362.272614 647.673950,362.063416 647.673950,362.063416 
	C647.526306,361.963776 647.378601,361.864166 647.020142,361.516754 
	C646.809326,361.268982 646.648743,361.048920 646.648743,361.048920 
	C646.648743,361.048920 646.312805,360.872223 646.105286,360.385986 
	C640.429810,355.348633 632.478210,355.049530 627.070374,359.191559 
	C627.070374,359.191559 627.069885,359.094910 626.781860,359.091370 
	C626.038269,359.474304 625.582764,359.860748 625.127197,360.247192 
	C625.127197,360.247192 625.085449,360.137299 624.874146,360.198792 
	C624.467957,360.557190 624.273132,360.854095 624.078369,361.151001 
	C624.078369,361.151031 624.073608,361.057281 623.881348,361.131378 
	C623.455383,361.601166 623.221619,361.996857 622.987915,362.392517 
	C622.894775,362.534882 622.801636,362.677216 622.133667,363.050232 
	C617.136536,367.705566 617.140930,373.565399 617.093262,379.070679 
	C616.875427,404.213867 617.128723,429.361145 616.915161,454.504425 
	C616.853577,461.746887 615.799866,468.980865 615.201050,476.218750 
	C615.201050,476.218750 615.107300,476.172699 614.882568,476.219604 
	C614.488464,476.582275 614.319092,476.898010 614.149719,477.213745 
	C614.149719,477.213745 614.095398,477.117035 613.877686,477.189056 
	C613.469543,477.562622 613.279114,477.864166 613.088684,478.165741 
	C613.088684,478.165741 613.103699,478.067261 612.772095,478.059967 
	C610.960876,478.868347 609.481201,479.683990 608.001526,480.499664 
	C607.550598,480.622803 607.099609,480.745972 606.052002,480.601929 
	C603.984375,480.494537 602.513367,480.654327 601.042358,480.814117 
	C600.570312,480.795380 600.098267,480.776642 599.206177,480.307953 
	C591.272583,477.209991 588.855835,471.688812 588.923584,464.028656 
	C589.141785,439.365723 588.714722,414.694611 589.139526,390.037048 
	C589.323914,379.332428 590.738586,368.622375 592.095398,357.978668 
	C592.582520,354.156982 594.540588,350.522766 595.827393,346.802979 
	C595.827332,346.802979 595.887207,346.888733 596.177246,346.802124 
	C597.242981,345.401093 598.018616,344.086639 598.794312,342.772217 
	C598.794312,342.772217 598.870056,342.847504 599.109497,342.774719 
	C599.579468,342.170380 599.810059,341.638855 600.040588,341.107300 
	C600.217712,340.812286 600.394836,340.517273 601.123169,340.092804 
	C602.062805,339.555176 602.451294,339.147003 602.839783,338.738831 
	C602.839783,338.738831 602.893372,338.836365 603.111938,338.781616 
	C603.514648,338.420654 603.698853,338.114410 603.882996,337.808136 
	C603.882996,337.808136 603.905640,337.904938 604.181396,337.828247 
	C605.271790,337.096069 606.086426,336.440582 606.901001,335.785065 
	C606.901001,335.785065 606.887756,335.886078 607.230591,335.885010 
	C616.763489,331.761780 626.321533,329.957672 636.285522,332.016541 
	C642.947388,333.393127 649.505371,335.272339 656.109863,336.926636 
	C656.109863,336.926636 656.042725,336.977234 656.144897,337.186340 
	C656.557678,337.558167 656.868286,337.720856 657.178955,337.883545 
	C657.178955,337.883545 657.084839,337.897156 657.176025,338.120911 
	C657.588196,338.499481 657.909241,338.654327 658.230225,338.809174 
	C658.230225,338.809174 658.115845,338.806335 658.202759,339.109680 
	C660.253723,341.246307 662.217651,343.079620 664.181641,344.912933 
	C664.181641,344.912933 664.083801,344.911743 664.068176,345.258362 
	C664.619202,346.917206 665.013489,348.345764 665.799438,349.509918 
	C666.632690,350.744202 667.838074,351.727234 668.880920,352.820007 
	C669.969238,351.516968 671.220154,350.312042 672.087219,348.875458 
	C672.638916,347.961487 672.621216,346.703827 672.858826,345.600281 
	C672.858826,345.600281 672.908325,345.262726 673.357178,345.097229 
	C676.216492,342.309143 678.626953,339.686523 681.037354,337.063873 
	C681.037354,337.063873 681.011841,336.997101 681.387451,337.010712 
	C682.827820,336.310516 683.892517,335.596710 684.957214,334.882935 
	C684.957214,334.882904 684.977844,334.968414 685.341187,334.970032 
	C686.507568,334.797211 687.352295,334.728912 688.107361,334.432404 
	C698.614868,330.305634 709.580505,330.539795 720.307739,332.332733 
	C725.371765,333.179108 729.959045,336.865021 734.770325,339.248169 
	C735.899292,339.807404 737.060730,340.301025 738.207275,340.824799 
	C738.207275,340.824799 738.048889,340.959625 738.077393,341.232391 
	C739.468750,342.970917 740.831665,344.436707 742.194580,345.902466 
	C742.194580,345.902466 742.094666,345.907501 742.101074,346.245972 
	C743.399292,349.980072 745.281311,353.277679 745.864502,356.790894 
	C747.236938,365.057343 748.735107,373.416046 748.854370,381.756409 
	C749.229675,407.995087 748.828735,434.244171 749.088196,460.485657 
	C749.170654,468.831635 748.054932,476.124359 740.001953,480.543549 
	C739.549927,480.655640 739.097839,480.767731 738.051392,480.609467 
	C735.983276,480.502960 734.509583,480.666840 733.035889,480.830688 
z"/>
<path fill="#D85898" opacity="1.000000" stroke="none" 
	d="
M393.228943,480.263733 
	C382.119080,481.759827 371.504883,481.482178 361.116821,478.546234 
	C346.489014,474.412048 336.068054,465.058990 331.235779,450.815308 
	C327.904785,440.996826 325.609711,430.577423 324.651672,420.259460 
	C323.050812,403.018005 323.558868,385.714233 327.889893,368.709198 
	C333.498596,346.687378 346.813873,332.906830 369.845917,330.722046 
	C379.652985,329.791748 389.887360,330.161560 399.576599,331.898376 
	C416.824646,334.990112 427.728577,346.289917 433.083374,362.720825 
	C438.676056,379.881744 439.809570,397.660370 438.374481,415.506714 
	C437.579285,425.395691 436.322388,435.424652 433.687714,444.951965 
	C428.116547,465.097839 414.917969,477.427002 393.228943,480.263733 
M401.420258,442.796326 
	C410.187439,425.259430 408.541962,406.530426 407.268219,387.972168 
	C406.867035,382.126678 404.913574,376.274078 402.947449,370.678833 
	C400.567444,363.905853 395.216217,360.031464 388.286011,358.407745 
	C372.653503,354.745026 359.468964,362.389130 357.308929,378.339600 
	C355.359467,392.735138 355.365997,407.473602 355.572235,422.045837 
	C355.658691,428.154388 357.633026,434.616821 360.225830,440.237091 
	C367.675934,456.386200 390.680603,457.971619 401.420258,442.796326 
z"/>
<path fill="#F3D2F4" opacity="1.000000" stroke="none" 
	d="
M357.149506,664.021301 
	C335.170929,657.562012 325.723541,641.161377 322.119934,620.660522 
	C318.250580,598.648254 318.000244,576.369507 323.261383,554.606934 
	C328.763794,531.846191 341.086304,519.272278 366.156677,515.872498 
	C376.904724,514.414978 387.226288,515.284668 397.626587,517.969299 
	C415.815277,522.664307 425.237457,535.631775 429.831543,552.576172 
	C434.652710,570.358093 434.974884,588.560364 433.150055,606.880249 
	C432.111115,617.310730 430.712311,627.437500 426.581360,637.294495 
	C420.332672,652.204651 409.440857,661.332031 394.093567,664.631104 
	C382.044006,667.221252 369.690308,667.132446 357.149506,664.021301 
M363.095367,546.451599 
	C360.022247,550.625671 356.032654,554.423584 354.123108,559.075317 
	C352.040710,564.148132 351.639465,569.981262 350.937927,575.537537 
	C348.903809,591.648438 349.721863,607.510071 354.455139,623.224304 
	C357.627533,633.756409 366.982697,638.255127 376.589478,638.613342 
	C385.487122,638.945129 393.663361,635.177856 397.784546,626.328918 
	C403.759430,613.499878 403.626251,599.618103 403.689575,585.896179 
	C403.716858,579.982910 402.638336,574.060059 401.992920,568.149109 
	C399.545105,545.730835 382.402557,537.918396 363.095367,546.451599 
z"/>
<path fill="#D85898" opacity="1.000000" stroke="none" 
	d="
M526.336365,423.622559 
	C519.336975,418.895538 506.209015,418.624512 499.874512,423.003723 
	C495.317413,426.154175 494.195526,431.175964 494.012299,436.205261 
	C493.666901,445.685577 493.803314,455.182953 493.701721,464.672821 
	C493.643951,470.066162 493.701935,475.801697 488.073486,478.660461 
	C481.620209,481.938171 474.805847,481.731842 468.395508,478.287872 
	C464.774353,476.342407 463.023987,472.945862 463.027405,468.757935 
	C463.053711,436.449432 462.618011,404.131836 463.253235,371.835297 
	C463.759583,346.091980 478.948486,331.958832 506.678375,330.226685 
	C513.940369,329.773071 521.392578,329.828613 528.562988,330.923584 
	C549.360779,334.099579 561.149231,346.720093 562.637573,367.724396 
	C563.280212,376.793671 562.717590,386.053436 561.663757,395.105743 
	C560.762390,402.849030 556.598877,409.437469 550.458801,414.841156 
	C552.133728,416.851013 553.666870,418.551208 555.043823,420.369659 
	C558.974243,425.560242 561.164917,431.313080 561.068542,437.954926 
	C560.926025,447.778931 561.086731,457.606903 561.012817,467.432404 
	C560.940979,476.990112 556.286987,481.156586 545.992981,481.065582 
	C535.614441,480.973877 530.971985,476.768768 530.830078,467.497742 
	C530.657043,456.187103 530.631287,444.864258 530.003113,433.576691 
	C529.820618,430.297974 527.792542,427.121979 526.336365,423.622559 
M496.385590,364.162689 
	C494.927673,376.277527 493.469757,388.392365 491.840363,401.931976 
	C499.763000,395.487518 507.934479,394.796265 516.352478,395.048706 
	C519.009399,395.128357 521.688293,395.059174 524.334229,394.812561 
	C532.857666,394.018188 535.663818,390.991547 535.956665,382.394501 
	C536.041565,379.901459 536.027527,377.401184 535.954163,374.907288 
	C535.484680,358.936615 529.514160,353.368713 513.573914,354.085602 
	C511.760162,354.167236 509.958038,354.583405 508.158478,354.890991 
	C502.885071,355.792236 498.886871,358.406464 496.385590,364.162689 
z"/>
<path fill="#F3D2F4" opacity="1.000000" stroke="none" 
	d="
M554.733643,613.565063 
	C555.258545,616.056335 555.946533,618.164917 555.966431,620.279907 
	C556.074463,631.774963 556.061523,643.271790 556.001343,654.767578 
	C555.965515,661.619568 551.625610,665.886414 544.749451,666.012878 
	C542.917297,666.046570 541.084106,666.032349 539.251465,666.018921 
	C530.947693,665.958069 526.055054,661.044800 526.011536,652.599976 
	C525.960938,642.770264 526.009155,632.940063 525.982971,623.110229 
	C525.979004,621.619934 525.921814,620.111511 525.690125,618.642944 
	C523.729858,606.217773 516.484924,604.069580 505.357025,605.257935 
	C493.354340,606.539856 489.061890,612.108521 489.007843,624.302368 
	C488.964996,633.965515 489.022552,643.629150 488.984833,653.292297 
	C488.953705,661.274475 484.758942,665.617676 476.778473,665.977417 
	C474.949493,666.059875 473.110657,666.059143 471.281494,665.979492 
	C463.233337,665.629211 458.099304,660.732544 458.069427,652.702942 
	C457.954681,621.880615 457.781799,591.054199 458.212921,560.237488 
	C458.308258,553.423584 460.122375,546.421631 462.307465,539.895508 
	C466.209167,528.242737 475.391693,521.495544 486.751068,518.393433 
	C501.453827,514.378296 516.410461,513.223083 531.369568,517.922485 
	C544.536804,522.058960 553.402405,530.636719 556.290161,543.984924 
	C559.362671,558.187317 559.661560,572.749939 554.993591,586.749756 
	C553.382935,591.580139 549.586731,595.681824 546.712402,600.237610 
	C549.138794,604.226440 551.863586,608.705933 554.733643,613.565063 
M496.761322,543.118835 
	C494.788177,546.101624 491.504669,548.909912 491.079834,552.098938 
	C489.623596,563.030884 489.166504,574.096069 488.368561,585.113342 
	C488.357513,585.265747 488.867523,585.455994 487.925079,584.846436 
	C493.763916,583.365784 498.576691,581.724243 503.523560,581.004578 
	C508.910858,580.220825 514.426880,580.353699 519.878845,579.973022 
	C524.710266,579.635681 529.389099,578.595520 530.752869,573.082397 
	C532.659973,565.372437 531.802490,557.617615 529.829285,550.049622 
	C528.468689,544.831177 524.872864,541.689026 519.532043,540.258728 
	C511.766937,538.179382 504.458649,538.939148 496.761322,543.118835 
z"/>
<path fill="#F3D2F4" opacity="1.000000" stroke="none" 
	d="
M299.017273,583.028564 
	C299.390656,600.005554 299.294067,616.391663 293.139709,632.126892 
	C285.673706,651.215759 271.460663,661.886841 251.530060,663.771545 
	C236.021591,665.238037 220.320404,664.740662 204.702621,664.940491 
	C198.405579,665.021057 194.066635,660.436523 194.049286,653.634033 
	C193.966812,621.321777 193.255569,588.985046 194.285309,556.705383 
	C194.947662,535.942688 203.059998,521.860901 225.967178,516.608215 
	C242.033188,512.924255 257.834961,514.519043 272.124451,522.937317 
	C283.937866,529.896851 291.122406,541.210510 294.653412,554.178345 
	C297.149750,563.346252 297.634064,573.062012 299.017273,583.028564 
M260.021942,630.440125 
	C261.716156,627.058899 263.999207,623.843567 265.005798,620.268677 
	C270.225922,601.729736 270.079742,582.900818 266.789520,564.098572 
	C263.884888,547.499512 252.823395,539.820801 235.903000,542.035583 
	C228.599365,542.991577 224.992172,547.027771 224.984070,554.315369 
	C224.970184,566.811584 224.979919,579.307800 224.979904,591.804016 
	C224.979874,606.299622 224.911346,620.796021 225.079666,635.289673 
	C225.097733,636.846252 226.450348,639.709045 227.258011,639.735901 
	C238.865128,640.121521 250.840485,641.404541 260.021942,630.440125 
z"/>
<path fill="#D85898" opacity="1.000000" stroke="none" 
	d="
M216.045654,337.004822 
	C249.208801,316.868591 291.522064,334.850647 300.448120,372.986816 
	C305.674225,395.314941 305.771271,417.860870 299.986572,440.217438 
	C293.960510,463.506927 276.120819,478.144073 252.081039,478.963318 
	C237.442978,479.462128 222.775772,479.199371 208.122574,479.115387 
	C202.018570,479.080383 198.892181,475.202911 198.885681,468.009338 
	C198.856918,436.201813 198.841476,404.394226 198.914474,372.586853 
	C198.922440,369.115143 199.310379,365.606720 199.902191,362.180969 
	C201.713837,351.693665 206.849609,343.230865 216.045654,337.004822 
M260.945251,360.459106 
	C255.615417,356.784027 249.587906,355.946167 243.321732,356.215149 
	C233.310974,356.644867 229.197906,360.937103 229.191895,370.945740 
	C229.176407,396.757599 229.185791,422.569489 229.185242,448.381348 
	C229.185211,450.150757 229.185242,451.920197 229.185242,454.201355 
	C234.217163,454.201355 238.528091,453.980499 242.809692,454.241211 
	C257.995880,455.165863 266.631042,446.381042 270.043182,433.708984 
	C274.529572,417.047272 274.798187,400.205383 272.147919,383.268738 
	C270.824768,374.813110 268.932220,366.525909 260.945251,360.459106 
z"/>
<path fill="#D85898" opacity="1.000000" stroke="none" 
	d="
M778.369141,414.999939 
	C778.367920,392.690979 778.366333,370.882050 778.364990,349.073090 
	C778.364929,348.074219 778.341248,347.074432 778.374329,346.076569 
	C778.839783,332.038208 789.473145,325.545685 802.448730,331.406189 
	C807.297363,333.596069 809.088684,337.673340 809.096863,342.723236 
	C809.116516,354.876282 809.103516,367.029388 809.103577,379.182465 
	C809.103699,408.483032 809.118958,437.783630 809.094604,467.084198 
	C809.087158,476.096466 805.295410,480.418793 797.056641,480.999359 
	C785.666626,481.802002 780.068420,478.150391 778.873047,468.896942 
	C778.449036,465.614807 778.400757,462.268799 778.389587,458.951294 
	C778.340759,444.467651 778.368713,429.983765 778.369141,414.999939 
z"/>
<path fill="#F2D2F4" opacity="1.000000" stroke="none" 
	d="
M789.978027,666.025879 
	C778.400818,665.985901 774.006409,661.535095 774.004700,650.267944 
	C773.998779,610.622498 774.014099,570.976990 773.989807,531.331543 
	C773.986206,525.459167 774.530334,519.701050 780.560364,516.835144 
	C787.132019,513.711914 794.236755,513.520142 799.852905,518.278748 
	C802.625000,520.627563 804.727417,525.403137 804.758118,529.100342 
	C805.097839,570.075623 805.315552,611.059509 804.743164,652.029602 
	C804.588928,663.066956 800.851318,666.571960 789.978027,666.025879 
z"/>
<path fill="#C16B98" opacity="1.000000" stroke="none" 
	d="
M595.521973,346.940247 
	C594.540588,350.522766 592.582520,354.156982 592.095398,357.978668 
	C590.738586,368.622375 589.323914,379.332428 589.139526,390.037048 
	C588.714722,414.694611 589.141785,439.365723 588.923584,464.028656 
	C588.855835,471.688812 591.272583,477.209991 598.887024,480.148682 
	C591.183228,479.409393 587.499756,475.011383 587.486633,466.389954 
	C587.446716,440.277405 587.325317,414.163483 587.557007,388.052917 
	C587.634766,379.282074 588.115417,370.430206 589.492554,361.787567 
	C590.301819,356.709106 593.237427,351.969513 595.521973,346.940247 
z"/>
<path fill="#C16B98" opacity="1.000000" stroke="none" 
	d="
M740.352844,480.600159 
	C748.054932,476.124359 749.170654,468.831635 749.088196,460.485657 
	C748.828735,434.244171 749.229675,407.995087 748.854370,381.756409 
	C748.735107,373.416046 747.236938,365.057343 745.864502,356.790894 
	C745.281311,353.277679 743.399292,349.980072 742.127441,346.203461 
	C748.363037,353.288147 749.701050,362.511047 749.872375,371.525146 
	C750.450684,401.958313 750.349365,432.404694 750.445007,462.846191 
	C750.453796,465.658569 750.282349,468.526337 749.726257,471.273621 
	C748.728149,476.204620 746.063477,479.793488 740.352844,480.600159 
z"/>
<path fill="#C16B98" opacity="1.000000" stroke="none" 
	d="
M615.529968,476.087158 
	C615.799866,468.980865 616.853577,461.746887 616.915161,454.504425 
	C617.128723,429.361145 616.875427,404.213867 617.093262,379.070679 
	C617.140930,373.565399 617.136536,367.705566 621.914429,363.180664 
	C619.125244,368.975067 618.543274,375.294983 618.578369,381.885132 
	C618.724182,409.294342 618.751526,436.705750 618.517151,464.113739 
	C618.483276,468.068329 616.786316,472.008636 615.529968,476.087158 
z"/>
<path fill="#C16B98" opacity="1.000000" stroke="none" 
	d="
M653.381958,375.474640 
	C653.984924,376.766724 654.929382,378.514252 654.935547,380.265106 
	C655.031311,407.515320 655.054871,434.766144 654.975708,462.016449 
	C654.954163,469.431702 657.032959,475.304321 664.868896,478.078827 
	C660.247253,478.513550 656.889221,476.162079 655.370483,471.954590 
	C654.213684,468.749786 653.614136,465.173981 653.589233,461.757202 
	C653.380737,433.149475 653.362549,404.540344 653.381958,375.474640 
z"/>
<path fill="#C16B98" opacity="1.000000" stroke="none" 
	d="
M682.302673,472.800018 
	C682.349487,441.989166 682.607727,410.933075 683.091980,379.880493 
	C683.146606,376.374512 684.476196,372.888367 685.524597,369.180481 
	C685.373901,384.591736 684.739014,400.212921 684.502380,415.840149 
	C684.272827,431.000031 684.572998,446.167755 684.366882,461.328308 
	C684.315918,465.078217 683.204651,468.813690 682.302673,472.800018 
z"/>
<path fill="#C16B98" opacity="1.000000" stroke="none" 
	d="
M719.566284,373.486206 
	C720.134033,374.844727 720.944153,376.648438 720.950562,378.454956 
	C721.035400,402.405731 720.937622,426.357269 721.048706,450.307831 
	C721.083252,457.751892 721.607483,465.193695 721.849854,473.112366 
	C721.024109,470.299255 719.609802,467.014404 719.588928,463.720734 
	C719.399292,433.792297 719.452759,403.862274 719.566284,373.486206 
z"/>
<path fill="#C16B98" opacity="1.000000" stroke="none" 
	d="
M738.108398,340.505981 
	C737.060730,340.301025 735.899292,339.807404 734.770325,339.248169 
	C729.959045,336.865021 725.371765,333.179108 720.307739,332.332733 
	C709.580505,330.539795 698.614868,330.305634 688.107361,334.432404 
	C687.352295,334.728912 686.507568,334.797211 685.303101,334.947998 
	C693.923889,329.218018 703.959412,329.101715 714.056824,329.914886 
	C723.123962,330.645081 731.698425,332.867767 738.108398,340.505981 
z"/>
<path fill="#C16B98" opacity="1.000000" stroke="none" 
	d="
M655.977051,336.619049 
	C649.505371,335.272339 642.947388,333.393127 636.285522,332.016541 
	C626.321533,329.957672 616.763489,331.761780 607.188477,335.856323 
	C612.136780,333.872009 617.331848,330.942535 622.832092,330.160828 
	C634.344421,328.524719 645.727844,329.527100 655.977051,336.619049 
z"/>
<path fill="#C16B98" opacity="1.000000" stroke="none" 
	d="
M672.556519,345.791962 
	C672.621216,346.703827 672.638916,347.961487 672.087219,348.875458 
	C671.220154,350.312042 669.969238,351.516968 668.880920,352.820007 
	C667.838074,351.727234 666.632690,350.744202 665.799438,349.509918 
	C665.013489,348.345764 664.619202,346.917206 664.096191,345.218262 
	C665.600220,346.672821 667.060608,348.514130 668.843323,350.761841 
	C670.098206,349.003876 671.176208,347.493774 672.556519,345.791962 
z"/>
<path fill="#C16B98" opacity="1.000000" stroke="none" 
	d="
M627.489502,359.161499 
	C632.478210,355.049530 640.429810,355.348633 646.005615,360.224518 
	C640.249756,357.449524 634.168274,357.146362 627.489502,359.161499 
z"/>
<path fill="#C16B98" opacity="1.000000" stroke="none" 
	d="
M694.404541,359.029541 
	C698.249878,355.652679 702.792664,354.965912 707.820862,357.937134 
	C703.583008,358.480927 699.204224,358.743622 694.404541,359.029541 
z"/>
<path fill="#C16B98" opacity="1.000000" stroke="none" 
	d="
M680.705933,337.124268 
	C678.626953,339.686523 676.216492,342.309143 673.473328,344.972351 
	C675.551941,342.403503 677.963196,339.794067 680.705933,337.124268 
z"/>
<path fill="#C16B98" opacity="1.000000" stroke="none" 
	d="
M673.376770,478.623962 
	C675.785339,476.709351 678.557739,474.888519 681.686768,473.043793 
	C680.594543,476.840790 677.601440,478.411591 673.376770,478.623962 
z"/>
<path fill="#C16B98" opacity="1.000000" stroke="none" 
	d="
M664.141174,344.563721 
	C662.217651,343.079620 660.253723,341.246307 658.242188,339.068237 
	C660.163391,340.553802 662.132019,342.384125 664.141174,344.563721 
z"/>
<path fill="#C16B98" opacity="1.000000" stroke="none" 
	d="
M649.841431,364.479675 
	C651.066589,366.900543 652.345581,369.690582 653.379517,372.710297 
	C652.054810,370.242920 650.975037,367.545868 649.841431,364.479675 
z"/>
<path fill="#C16B98" opacity="1.000000" stroke="none" 
	d="
M721.808777,474.336700 
	C723.426270,475.479736 725.078674,476.988647 726.839355,478.816589 
	C725.246338,477.657928 723.544983,476.180267 721.808777,474.336700 
z"/>
<path fill="#C16B98" opacity="1.000000" stroke="none" 
	d="
M742.160461,345.557739 
	C740.831665,344.436707 739.468750,342.970917 738.140259,341.149567 
	C739.491943,342.266968 740.809143,343.739960 742.160461,345.557739 
z"/>
<path fill="#C16B98" opacity="1.000000" stroke="none" 
	d="
M608.336914,480.547943 
	C609.481201,479.683990 610.960876,478.868347 612.805054,478.097321 
	C611.670532,478.960052 610.171448,479.778137 608.336914,480.547943 
z"/>
<path fill="#C16B98" opacity="1.000000" stroke="none" 
	d="
M598.476196,342.870422 
	C598.018616,344.086639 597.242981,345.401093 596.125000,346.800659 
	C596.574463,345.580078 597.366333,344.274353 598.476196,342.870422 
z"/>
<path fill="#C16B98" opacity="1.000000" stroke="none" 
	d="
M727.076111,479.363708 
	C728.188599,479.368774 729.488281,479.646637 730.894592,480.244446 
	C729.755249,480.255096 728.509277,479.945801 727.076111,479.363708 
z"/>
<path fill="#C16B98" opacity="1.000000" stroke="none" 
	d="
M717.799316,366.458130 
	C718.406006,367.560699 719.025757,369.028168 719.418823,370.721588 
	C718.732300,369.572723 718.272339,368.197906 717.799316,366.458130 
z"/>
<path fill="#C16B98" opacity="1.000000" stroke="none" 
	d="
M684.622925,334.902222 
	C683.892517,335.596710 682.827820,336.310516 681.414917,337.033661 
	C682.140625,336.335846 683.214600,335.628693 684.622925,334.902222 
z"/>
<path fill="#C16B98" opacity="1.000000" stroke="none" 
	d="
M687.497925,365.092285 
	C687.654236,364.241608 688.111206,363.270630 688.914612,362.229401 
	C688.773560,363.096771 688.286072,364.034363 687.497925,365.092285 
z"/>
<path fill="#C16B98" opacity="1.000000" stroke="none" 
	d="
M733.438232,480.927246 
	C734.509583,480.666840 735.983276,480.502960 737.700684,480.569275 
	C736.576416,480.874268 735.208557,480.949066 733.438232,480.927246 
z"/>
<path fill="#C16B98" opacity="1.000000" stroke="none" 
	d="
M601.443115,480.915405 
	C602.513367,480.654327 603.984375,480.494537 605.699341,480.563110 
	C604.576843,480.866577 603.210327,480.941650 601.443115,480.915405 
z"/>
<path fill="#C16B98" opacity="1.000000" stroke="none" 
	d="
M606.565491,335.808167 
	C606.086426,336.440582 605.271790,337.096069 604.132690,337.818512 
	C604.615417,337.200714 605.422729,336.515991 606.565491,335.808167 
z"/>
<path fill="#C16B98" opacity="1.000000" stroke="none" 
	d="
M691.308228,360.933014 
	C691.584045,360.375305 692.170288,359.747528 693.128235,359.145020 
	C692.872864,359.734497 692.245728,360.298737 691.308228,360.933014 
z"/>
<path fill="#C16B98" opacity="1.000000" stroke="none" 
	d="
M713.907776,361.396667 
	C714.466064,361.585541 715.110107,362.073334 715.828369,362.870239 
	C715.266296,362.684753 714.629944,362.190186 713.907776,361.396667 
z"/>
<path fill="#C16B98" opacity="1.000000" stroke="none" 
	d="
M668.415649,478.884888 
	C668.889771,478.634338 669.714905,478.487793 670.730408,478.543274 
	C670.202759,478.826447 669.484680,478.907684 668.415649,478.884888 
z"/>
<path fill="#C16B98" opacity="1.000000" stroke="none" 
	d="
M623.217896,362.334595 
	C623.221619,361.996857 623.455383,361.601166 623.926758,361.143188 
	C623.925598,361.479492 623.686829,361.878082 623.217896,362.334595 
z"/>
<path fill="#C16B98" opacity="1.000000" stroke="none" 
	d="
M599.777954,341.234131 
	C599.810059,341.638855 599.579468,342.170380 599.058594,342.790833 
	C599.017273,342.373505 599.266296,341.867218 599.777954,341.234131 
z"/>
<path fill="#C16B98" opacity="1.000000" stroke="none" 
	d="
M711.012695,359.400574 
	C711.453552,359.301483 712.053467,359.465424 712.766357,359.937988 
	C712.310181,360.052246 711.740906,359.857941 711.012695,359.400574 
z"/>
<path fill="#C16B98" opacity="1.000000" stroke="none" 
	d="
M648.604980,363.117828 
	C648.944763,363.149017 649.359741,363.423096 649.825806,363.952209 
	C649.478027,363.925079 649.079102,363.642883 648.604980,363.117828 
z"/>
<path fill="#C16B98" opacity="1.000000" stroke="none" 
	d="
M602.547241,338.770691 
	C602.451294,339.147003 602.062805,339.555176 601.369568,339.996582 
	C601.461426,339.620728 601.858093,339.211639 602.547241,338.770691 
z"/>
<path fill="#C16B98" opacity="1.000000" stroke="none" 
	d="
M689.442627,362.219116 
	C689.557800,361.851959 689.968140,361.447937 690.691040,361.021301 
	C690.581665,361.393188 690.159790,361.787720 689.442627,362.219116 
z"/>
<path fill="#C16B98" opacity="1.000000" stroke="none" 
	d="
M625.432678,360.223328 
	C625.582764,359.860748 626.038269,359.474304 626.822815,359.117004 
	C626.680603,359.497284 626.209351,359.848358 625.432678,360.223328 
z"/>
<path fill="#C16B98" opacity="1.000000" stroke="none" 
	d="
M716.746033,364.449646 
	C717.122131,364.595642 717.511169,365.047577 717.868530,365.829041 
	C717.477539,365.690918 717.118286,365.223236 716.746033,364.449646 
z"/>
<path fill="#C16B98" opacity="1.000000" stroke="none" 
	d="
M658.159790,338.540222 
	C657.909241,338.654327 657.588196,338.499481 657.189819,338.075409 
	C657.438110,337.961212 657.763733,338.116241 658.159790,338.540222 
z"/>
<path fill="#C16B98" opacity="1.000000" stroke="none" 
	d="
M624.345215,361.083710 
	C624.273132,360.854095 624.467957,360.557190 624.932861,360.201111 
	C625.005981,360.433441 624.808960,360.724945 624.345215,361.083710 
z"/>
<path fill="#C16B98" opacity="1.000000" stroke="none" 
	d="
M603.613831,337.875122 
	C603.698853,338.114410 603.514648,338.420654 603.056274,338.781708 
	C602.969604,338.538391 603.157166,338.240234 603.613831,337.875122 
z"/>
<path fill="#C16B98" opacity="1.000000" stroke="none" 
	d="
M657.086914,337.626526 
	C656.868286,337.720856 656.557678,337.558167 656.145081,337.144287 
	C656.360413,337.051910 656.677673,337.210693 657.086914,337.626526 
z"/>
<path fill="#C16B98" opacity="1.000000" stroke="none" 
	d="
M710.215576,359.048035 
	C710.288025,358.890930 710.563965,358.848572 710.862305,359.002563 
	C710.884827,359.198914 710.419067,359.162750 710.215576,359.048035 
z"/>
<path fill="#C16B98" opacity="1.000000" stroke="none" 
	d="
M613.360596,478.103821 
	C613.279114,477.864166 613.469543,477.562622 613.931641,477.201813 
	C614.013062,477.442352 613.822815,477.742126 613.360596,478.103821 
z"/>
<path fill="#C16B98" opacity="1.000000" stroke="none" 
	d="
M614.422302,477.149536 
	C614.319092,476.898010 614.488464,476.582275 614.930786,476.199646 
	C615.034180,476.450287 614.864502,476.767792 614.422302,477.149536 
z"/>
<path fill="#C16B98" opacity="1.000000" stroke="none" 
	d="
M712.880859,360.406921 
	C713.112122,360.310059 713.427185,360.474579 713.826538,360.903137 
	C713.595459,361.000916 713.280029,360.834656 712.880859,360.406921 
z"/>
<path fill="#C16B98" opacity="1.000000" stroke="none" 
	d="
M646.616577,361.149139 
	C646.648743,361.048920 646.809326,361.268982 646.870056,361.295685 
	C646.930786,361.322388 646.584351,361.249359 646.616577,361.149139 
z"/>
<path fill="#C16B98" opacity="1.000000" stroke="none" 
	d="
M686.061523,368.693909 
	C685.940308,368.710327 686.092041,368.452484 686.114990,368.388123 
	C686.137878,368.323730 686.182678,368.677460 686.061523,368.693909 
z"/>
<path fill="#C16B98" opacity="1.000000" stroke="none" 
	d="
M647.635864,362.158508 
	C647.673950,362.063416 647.816223,362.272614 647.873047,362.296204 
	C647.929871,362.319794 647.597839,362.253601 647.635864,362.158508 
z"/>
<path fill="#C16B98" opacity="1.000000" stroke="none" 
	d="
M687.098877,365.799225 
	C686.824097,365.791748 686.677307,365.598816 686.530518,365.405823 
	C686.635254,365.328217 686.739990,365.250580 687.047424,365.168335 
	C687.250122,365.163666 687.226929,365.613770 687.098877,365.799225 
z"/>
<path fill="#C16B98" opacity="1.000000" stroke="none" 
	d="
M715.895142,363.362671 
	C716.129944,363.285400 716.431519,363.475311 716.786987,363.938232 
	C716.547913,364.017487 716.254944,363.823700 715.895142,363.362671 
z"/>
<path fill="#FFFCFE" opacity="1.000000" stroke="none" 
	d="
M401.224854,443.107239 
	C390.680603,457.971619 367.675934,456.386200 360.225830,440.237091 
	C357.633026,434.616821 355.658691,428.154388 355.572235,422.045837 
	C355.365997,407.473602 355.359467,392.735138 357.308929,378.339600 
	C359.468964,362.389130 372.653503,354.745026 388.286011,358.407745 
	C395.216217,360.031464 400.567444,363.905853 402.947449,370.678833 
	C404.913574,376.274078 406.867035,382.126678 407.268219,387.972168 
	C408.541962,406.530426 410.187439,425.259430 401.224854,443.107239 
z"/>
<path fill="#FFFEFF" opacity="1.000000" stroke="none" 
	d="
M363.432281,546.275330 
	C382.402557,537.918396 399.545105,545.730835 401.992920,568.149109 
	C402.638336,574.060059 403.716858,579.982910 403.689575,585.896179 
	C403.626251,599.618103 403.759430,613.499878 397.784546,626.328918 
	C393.663361,635.177856 385.487122,638.945129 376.589478,638.613342 
	C366.982697,638.255127 357.627533,633.756409 354.455139,623.224304 
	C349.721863,607.510071 348.903809,591.648438 350.937927,575.537537 
	C351.639465,569.981262 352.040710,564.148132 354.123108,559.075317 
	C356.032654,554.423584 360.022247,550.625671 363.432281,546.275330 
z"/>
<path fill="#FFFAFD" opacity="1.000000" stroke="none" 
	d="
M496.563477,363.819275 
	C498.886871,358.406464 502.885071,355.792236 508.158478,354.890991 
	C509.958038,354.583405 511.760162,354.167236 513.573914,354.085602 
	C529.514160,353.368713 535.484680,358.936615 535.954163,374.907288 
	C536.027527,377.401184 536.041565,379.901459 535.956665,382.394501 
	C535.663818,390.991547 532.857666,394.018188 524.334229,394.812561 
	C521.688293,395.059174 519.009399,395.128357 516.352478,395.048706 
	C507.934479,394.796265 499.763000,395.487518 491.840363,401.931976 
	C493.469757,388.392365 494.927673,376.277527 496.563477,363.819275 
z"/>
<path fill="#FFFEFF" opacity="1.000000" stroke="none" 
	d="
M497.099884,542.954590 
	C504.458649,538.939148 511.766937,538.179382 519.532043,540.258728 
	C524.872864,541.689026 528.468689,544.831177 529.829285,550.049622 
	C531.802490,557.617615 532.659973,565.372437 530.752869,573.082397 
	C529.389099,578.595520 524.710266,579.635681 519.878845,579.973022 
	C514.426880,580.353699 508.910858,580.220825 503.523560,581.004578 
	C498.576691,581.724243 493.763916,583.365784 487.925079,584.846436 
	C488.867523,585.455994 488.357513,585.265747 488.368561,585.113342 
	C489.166504,574.096069 489.623596,563.030884 491.079834,552.098938 
	C491.504669,548.909912 494.788177,546.101624 497.099884,542.954590 
z"/>
<path fill="#FFFEFF" opacity="1.000000" stroke="none" 
	d="
M259.777466,630.704834 
	C250.840485,641.404541 238.865128,640.121521 227.258011,639.735901 
	C226.450348,639.709045 225.097733,636.846252 225.079666,635.289673 
	C224.911346,620.796021 224.979874,606.299622 224.979904,591.804016 
	C224.979919,579.307800 224.970184,566.811584 224.984070,554.315369 
	C224.992172,547.027771 228.599365,542.991577 235.903000,542.035583 
	C252.823395,539.820801 263.884888,547.499512 266.789520,564.098572 
	C270.079742,582.900818 270.225922,601.729736 265.005798,620.268677 
	C263.999207,623.843567 261.716156,627.058899 259.777466,630.704834 
z"/>
<path fill="#FEFBFD" opacity="1.000000" stroke="none" 
	d="
M261.224304,360.695679 
	C268.932220,366.525909 270.824768,374.813110 272.147919,383.268738 
	C274.798187,400.205383 274.529572,417.047272 270.043182,433.708984 
	C266.631042,446.381042 257.995880,455.165863 242.809692,454.241211 
	C238.528091,453.980499 234.217163,454.201355 229.185242,454.201355 
	C229.185242,451.920197 229.185211,450.150757 229.185242,448.381348 
	C229.185791,422.569489 229.176407,396.757599 229.191895,370.945740 
	C229.197906,360.937103 233.310974,356.644867 243.321732,356.215149 
	C249.587906,355.946167 255.615417,356.784027 261.224304,360.695679 
z"/>
</svg>