<svg version="1.1" id="Layer_1" xmlns="http://www.w3.org/2000/svg" xmlns:xlink="http://www.w3.org/1999/xlink" x="0px" y="0px"
	 width="100%" viewBox="0 0 1154 1151" enable-background="new 0 0 1154 1151" xml:space="preserve">
<path fill="#FF5763" opacity="1.000000" stroke="none" 
	d="
M1.000000,2.000000 
	C1.166667,1.666667 1.315919,1.056198 1.502793,1.044456 
	C2.830883,0.961004 4.166667,1.000000 5.500000,1.000000 
	C388.666656,1.000000 771.833313,1.000000 1155.000000,1.000000 
	C1155.000000,384.666656 1155.000000,768.333313 1154.472534,1151.703613 
	C1153.917236,1151.210571 1153.889404,1151.014038 1153.884277,1150.363647 
	C1153.914307,1148.909790 1153.927979,1147.910034 1153.927979,1146.910156 
	C1153.928955,767.429932 1153.929077,387.949707 1153.928955,8.469481 
	C1153.928955,7.802850 1153.855957,7.127045 1153.939575,6.471127 
	C1154.372925,3.071015 1153.069946,1.434192 1149.497681,1.865662 
	C1148.348022,2.004550 1147.167236,1.885353 1146.000610,1.885352 
	C766.853699,1.885258 387.706818,1.885002 8.559922,1.891698 
	C6.395593,1.891737 4.231266,1.989215 1.800248,2.029716 
	C1.355706,2.012161 1.177853,2.006081 1.000000,2.000000 
z"/>
<path fill="#FF4250" opacity="1.000000" stroke="none" 
	d="
M1.000000,2.450905 
	C1.177853,2.006081 1.355706,2.012161 1.776612,2.494386 
	C2.011739,3.970242 1.996870,4.969954 1.996867,5.969666 
	C1.995843,385.442902 1.995848,764.916138 1.995877,1144.389404 
	C1.995877,1145.056030 2.063103,1145.730347 1.986332,1146.387939 
	C1.591950,1149.766235 2.866386,1151.455566 6.455334,1151.034180 
	C7.605958,1150.899048 8.785994,1151.015381 9.952577,1151.015381 
	C388.925873,1151.015503 767.899170,1151.015991 1146.872437,1151.007446 
	C1149.202148,1151.007324 1151.531982,1150.883667 1153.861694,1150.817627 
	C1153.889404,1151.014038 1153.917236,1151.210571 1153.972534,1151.703613 
	C769.733765,1152.000000 385.467468,1152.000000 1.000000,1152.000000 
	C1.000000,768.967285 1.000000,385.934540 1.000000,2.450905 
z"/>
<path fill="#FF0316" opacity="1.000000" stroke="none" 
	d="
M1153.884277,1150.363647 
	C1151.531982,1150.883667 1149.202148,1151.007324 1146.872437,1151.007446 
	C767.899170,1151.015991 388.925873,1151.015503 9.952577,1151.015381 
	C8.785994,1151.015381 7.605958,1150.899048 6.455334,1151.034180 
	C2.866386,1151.455566 1.591950,1149.766235 1.986332,1146.387939 
	C2.063103,1145.730347 1.995877,1145.056030 1.995877,1144.389404 
	C1.995848,764.916138 1.995843,385.442902 1.996867,5.969666 
	C1.996870,4.969954 2.011739,3.970242 2.043301,2.505860 
	C4.231266,1.989215 6.395593,1.891737 8.559922,1.891698 
	C387.706818,1.885002 766.853699,1.885258 1146.000610,1.885352 
	C1147.167236,1.885353 1148.348022,2.004550 1149.497681,1.865662 
	C1153.069946,1.434192 1154.372925,3.071015 1153.939575,6.471127 
	C1153.855957,7.127045 1153.928955,7.802850 1153.928955,8.469481 
	C1153.929077,387.949707 1153.928955,767.429932 1153.927979,1146.910156 
	C1153.927979,1147.910034 1153.914307,1148.909790 1153.884277,1150.363647 
M563.500122,30.795553 
	C386.072632,30.795553 208.645157,30.795553 31.127190,30.795553 
	C31.127190,394.909790 31.127190,758.463074 31.127190,1121.986572 
	C395.597717,1121.986572 759.780457,1121.986572 1123.822510,1121.986572 
	C1123.822510,758.056824 1123.822510,394.516968 1123.822510,30.795551 
	C937.127197,30.795551 750.813660,30.795551 563.500122,30.795553 
z"/>
<path fill="#FFFFFF" opacity="1.000000" stroke="none" 
	d="
M564.000122,30.795551 
	C750.813660,30.795551 937.127197,30.795551 1123.822510,30.795551 
	C1123.822510,394.516968 1123.822510,758.056824 1123.822510,1121.986572 
	C759.780457,1121.986572 395.597717,1121.986572 31.127190,1121.986572 
	C31.127190,758.463074 31.127190,394.909790 31.127190,30.795553 
	C208.645157,30.795553 386.072632,30.795553 564.000122,30.795551 
M174.500000,1076.000366 
	C472.276306,1076.000366 770.052612,1076.000366 1067.748413,1076.000366 
	C1067.748413,964.446045 1067.748413,853.416504 1067.748413,742.379517 
	C741.391174,742.379517 415.453186,742.379517 89.289444,742.379517 
	C89.289444,853.639771 89.289444,964.683044 89.289444,1076.000366 
	C117.552422,1076.000366 145.526215,1076.000366 174.500000,1076.000366 
M560.245239,558.502686 
	C560.108093,550.684143 559.950134,542.865906 559.837341,535.046997 
	C559.296997,497.570801 556.772522,460.285553 548.763428,423.559296 
	C541.965820,392.388306 531.276428,362.770020 511.759796,337.116638 
	C494.416382,314.319794 473.817413,294.473877 450.826355,277.619049 
	C417.421143,253.129562 383.264832,229.634995 348.955750,206.415176 
	C301.732910,174.455521 255.422195,141.445099 215.493210,100.346703 
	C212.166672,96.922729 208.663055,93.670807 205.103241,90.204102 
	C204.795013,91.415421 204.426712,92.516693 204.240158,93.647942 
	C201.483276,110.365189 198.699875,127.078300 196.022110,143.808304 
	C189.602982,183.913467 185.636459,224.266327 184.826935,264.873840 
	C184.202957,296.174225 185.432190,327.392578 190.075562,358.449005 
	C195.620178,395.533142 205.496674,431.194427 223.039566,464.503235 
	C239.848679,496.418793 262.724030,523.019165 292.165894,544.025330 
	C311.419403,557.762329 332.878998,567.157532 354.203705,576.915527 
	C392.931396,594.636719 431.320862,613.039185 467.628296,635.445496 
	C494.109467,651.787659 518.819580,670.311462 538.517456,694.754333 
	C544.111206,701.695557 549.286804,708.973633 554.654175,716.097290 
	C555.037781,716.070007 555.421387,716.042786 555.804993,716.015564 
	C557.285034,663.845093 558.765137,611.674683 560.245239,558.502686 
M965.833862,351.508636 
	C966.481445,346.394318 967.544556,341.293182 967.706848,336.163544 
	C968.542847,309.740997 969.752625,283.308258 969.626221,256.884827 
	C969.538086,238.455902 968.188721,219.961792 966.183350,201.630173 
	C963.293091,175.209473 959.422607,148.892014 955.710571,122.567131 
	C954.189636,111.781029 951.990723,101.090530 950.100220,90.356537 
	C949.584900,90.045654 949.069580,89.734779 948.554260,89.423897 
	C947.894043,90.588882 947.449280,91.967072 946.540161,92.885735 
	C938.105042,101.409706 929.796631,110.074303 921.062256,118.284111 
	C883.784912,153.322784 841.994385,182.445892 799.486023,210.615143 
	C762.431580,235.170166 724.926147,259.110138 691.086243,288.145142 
	C670.820190,305.533600 651.469360,323.874756 636.735168,346.391388 
	C618.375671,374.448151 609.063538,405.899200 603.235901,438.546448 
	C596.516663,476.189178 594.948425,514.247192 594.852173,552.364258 
	C594.793762,575.490723 595.518616,598.624939 596.209717,621.746094 
	C597.104492,651.681946 598.307678,681.608521 599.417480,711.537659 
	C599.472961,713.032593 599.903259,714.513672 600.263123,716.606262 
	C601.671021,714.602478 602.635803,713.267639 603.561584,711.906189 
	C617.919739,690.790100 635.354431,672.606995 655.652588,657.134827 
	C684.515503,635.134094 716.169678,617.770935 748.602966,601.831238 
	C777.700317,587.531128 807.418701,574.485535 836.407715,559.976501 
	C868.385803,543.971375 894.662231,520.866455 915.293152,491.647064 
	C944.785706,449.876984 959.016235,402.464722 965.833862,351.508636 
z"/>
<path fill="#FF0013" opacity="1.000000" stroke="none" 
	d="
M174.000000,1076.000366 
	C145.526215,1076.000366 117.552422,1076.000366 89.289444,1076.000366 
	C89.289444,964.683044 89.289444,853.639771 89.289444,742.379517 
	C415.453186,742.379517 741.391174,742.379517 1067.748413,742.379517 
	C1067.748413,853.416504 1067.748413,964.446045 1067.748413,1076.000366 
	C770.052612,1076.000366 472.276306,1076.000366 174.000000,1076.000366 
M298.994843,850.166809 
	C298.985535,848.433167 298.976227,846.699463 299.458649,844.384949 
	C299.660156,842.362671 299.861633,840.340393 300.063110,838.318115 
	C299.716217,838.300720 299.369293,838.283325 299.022400,838.265930 
	C299.022400,840.513794 299.022400,842.761597 298.468445,845.494141 
	C298.653076,847.326172 298.837708,849.158203 299.003143,851.848083 
	C299.342468,854.229248 299.681824,856.610474 299.990234,859.793640 
	C301.117889,862.627563 299.136139,866.942993 304.178345,868.704956 
	C307.737457,874.448120 310.643188,880.752319 314.991974,885.817505 
	C323.982849,896.289490 335.827972,903.167236 348.921356,906.828308 
	C371.468384,913.132629 394.326416,918.322266 417.043030,924.023010 
	C431.041962,927.536011 445.392303,930.085327 457.911377,937.903442 
	C466.431854,943.224426 472.712097,950.311218 474.048126,960.696655 
	C475.933960,975.355103 468.399994,988.780945 453.520630,996.255249 
	C428.161255,1008.994080 401.416687,1009.207336 374.674194,1002.520996 
	C348.719666,996.031677 329.484283,981.783875 325.495117,952.917664 
	C325.343170,951.818054 323.876312,950.900208 322.845612,949.136292 
	C320.416351,948.654846 317.987091,948.173462 315.557800,947.692017 
	C315.514465,947.982727 315.471100,948.273499 315.427734,948.564209 
	C317.613770,949.030884 319.799835,949.497559 321.229462,950.298828 
	C311.052277,951.158325 300.875092,952.017822 290.423340,952.900513 
	C290.900879,957.402893 291.300873,961.173828 291.013885,965.173401 
	C289.648895,968.841858 292.800568,980.001892 295.911713,982.364197 
	C296.053650,982.472046 296.504822,982.172607 297.128815,982.702026 
	C305.490234,1001.296448 319.242645,1014.694702 337.709259,1022.804871 
	C370.968872,1037.411621 405.702454,1039.028687 440.925446,1032.266113 
	C460.202728,1028.565063 477.588043,1020.528870 491.529724,1006.104431 
	C513.536621,983.335510 515.940857,948.558167 496.847137,925.608398 
	C486.760437,913.484619 473.666229,905.285156 458.772156,901.093994 
	C436.956390,894.955139 414.738800,890.239685 392.678223,884.977234 
	C378.515167,881.598633 364.188782,878.737488 351.155273,871.831909 
	C340.004700,865.923889 334.741211,855.610352 336.915710,843.189697 
	C339.181549,830.246948 348.039246,822.518127 359.406128,817.863953 
	C378.583679,810.011719 398.692627,810.096252 418.865234,812.739197 
	C433.471313,814.652832 446.516449,819.805542 456.054596,831.786804 
	C462.118073,839.403381 464.878357,848.315613 466.419495,858.179810 
	C478.191681,857.388733 489.721222,856.613953 501.532867,855.820190 
	C499.969879,831.435303 489.290375,812.817078 469.340698,799.698486 
	C454.735870,790.094543 438.128387,786.183960 421.496490,783.403992 
	C422.265259,783.108459 423.034027,782.812927 424.121399,782.394958 
	C421.358917,781.932068 419.094940,781.193359 416.853455,781.256165 
	C412.877686,781.367737 408.915527,781.965820 404.030487,782.466248 
	C381.902740,782.183655 360.293762,784.677246 339.850983,793.946167 
	C314.371826,805.498413 298.223969,829.761841 300.948883,858.135254 
	C300.621368,858.434998 300.293884,858.734741 299.998871,858.174988 
	C299.654877,855.794678 299.310913,853.414429 298.994843,850.166809 
M545.923218,951.010742 
	C549.938049,950.663330 553.952820,950.315979 558.887390,949.998901 
	C562.086487,949.998901 565.285522,949.998901 568.484619,949.998901 
	C568.442810,949.531738 568.401001,949.064575 568.359192,948.597412 
	C564.909241,949.072205 561.459351,949.546997 557.087036,949.999023 
	C553.057190,950.331848 549.027405,950.664734 544.483337,951.425537 
	C544.355835,952.519409 544.228333,953.613342 544.100769,954.707214 
	C544.889343,954.152832 544.974487,953.535889 545.002563,952.916382 
	C545.031494,952.279724 545.004761,951.640503 545.923218,951.010742 
M819.985413,784.985474 
	C819.985413,784.985474 820.026978,784.943298 819.477844,785.579346 
	C819.347473,787.062012 819.103455,788.544617 819.103088,790.027283 
	C819.084656,868.297119 819.080383,946.566956 819.128906,1024.836792 
	C819.129944,1026.572144 819.757812,1028.307373 820.549377,1030.024048 
	C820.853516,1030.013794 821.157776,1030.009766 821.881714,1030.782959 
	C822.055725,1031.054077 822.229065,1031.562256 822.403931,1031.562744 
	C834.301025,1031.600098 846.198242,1031.596558 858.503662,1031.596558 
	C858.503662,1029.358643 858.503601,1027.549805 858.503601,1025.741089 
	C858.503601,997.264587 858.503723,968.788086 858.503662,940.311584 
	C858.503479,890.852417 858.505859,841.393188 858.495544,791.934021 
	C858.495056,789.400513 859.301147,786.284058 855.006531,786.111938 
	C855.006958,785.890747 855.011169,785.669617 855.120483,784.799744 
	C845.128967,784.562073 835.138123,784.274170 825.145264,784.134583 
	C823.415771,784.110413 821.677490,784.713684 819.985413,784.985474 
M633.198303,1003.056152 
	C629.392578,1001.957275 625.482910,1001.128784 621.798645,999.713745 
	C603.799683,992.800842 589.308655,982.231812 584.048157,962.408264 
	C582.992737,958.431091 582.150757,954.397278 581.142395,950.100159 
	C569.761230,950.996826 558.527527,951.881836 546.894470,952.798340 
	C547.090027,955.774658 547.076355,958.426025 547.463074,961.017639 
	C552.104187,992.122620 569.761902,1013.271729 598.445312,1024.728760 
	C630.520691,1037.540527 663.903198,1038.950073 697.557739,1032.197876 
	C718.219910,1028.052490 736.667419,1019.280945 750.711975,1002.870239 
	C771.093262,979.055298 771.251221,945.004150 750.939819,923.117920 
	C740.260193,911.610291 726.931213,903.966125 711.949768,900.037781 
	C688.262268,893.826599 664.222229,888.965942 640.504639,882.861023 
	C629.201904,879.951660 617.772339,876.572021 607.334839,871.487000 
	C591.235046,863.643494 587.904785,844.451599 598.983643,830.341553 
	C605.312256,822.281250 613.772400,817.585693 623.494202,815.024231 
	C639.979187,810.680786 656.747437,810.289917 673.536377,812.410828 
	C688.769043,814.335083 702.685852,819.323669 712.579102,832.066833 
	C718.429749,839.602966 721.336609,848.327881 722.633545,858.173828 
	C734.441895,857.388794 745.974670,856.622131 757.711670,855.841858 
	C757.711670,854.680237 757.784302,853.879272 757.701233,853.094788 
	C754.650513,824.284241 739.600342,803.806152 712.999207,793.182617 
	C677.464294,778.991272 641.011841,778.649597 604.666382,790.555725 
	C589.139282,795.642029 576.143738,804.551331 566.884216,818.507324 
	C550.063904,843.859192 555.863953,876.332581 580.494690,894.230469 
	C591.859192,902.488464 604.598816,907.655640 618.046143,911.005676 
	C641.750000,916.910950 665.669556,921.974304 689.280762,928.214966 
	C698.473633,930.644714 707.743591,934.221558 715.809387,939.178223 
	C732.831116,949.638550 735.955139,969.934448 723.099854,985.225342 
	C718.663635,990.502014 712.449402,994.879272 706.197815,997.921509 
	C688.155212,1006.701660 668.721985,1007.480652 649.756775,1005.362854 
	C657.686768,1005.362854 665.616821,1005.362854 673.546814,1005.362854 
	C673.547424,1004.901489 673.548035,1004.440063 673.548706,1003.978699 
	C671.756287,1003.978699 669.961853,1004.033936 668.171814,1003.969299 
	C659.273010,1003.647644 650.376282,1003.269104 641.476868,1002.968689 
	C638.986877,1002.884583 636.490173,1002.997986 633.198303,1003.056152 
z"/>
<path fill="#FF0114" opacity="1.000000" stroke="none" 
	d="
M560.245239,559.003479 
	C558.765137,611.674683 557.285034,663.845093 555.804993,716.015564 
	C555.421387,716.042786 555.037781,716.070007 554.654175,716.097290 
	C549.286804,708.973633 544.111206,701.695557 538.517456,694.754333 
	C518.819580,670.311462 494.109467,651.787659 467.628296,635.445496 
	C431.320862,613.039185 392.931396,594.636719 354.203705,576.915527 
	C332.878998,567.157532 311.419403,557.762329 292.165894,544.025330 
	C262.724030,523.019165 239.848679,496.418793 223.039566,464.503235 
	C205.496674,431.194427 195.620178,395.533142 190.075562,358.449005 
	C185.432190,327.392578 184.202957,296.174225 184.826935,264.873840 
	C185.636459,224.266327 189.602982,183.913467 196.022110,143.808304 
	C198.699875,127.078300 201.483276,110.365189 204.240158,93.647942 
	C204.426712,92.516693 204.795013,91.415421 205.103241,90.204102 
	C208.663055,93.670807 212.166672,96.922729 215.493210,100.346703 
	C255.422195,141.445099 301.732910,174.455521 348.955750,206.415176 
	C383.264832,229.634995 417.421143,253.129562 450.826355,277.619049 
	C473.817413,294.473877 494.416382,314.319794 511.759796,337.116638 
	C531.276428,362.770020 541.965820,392.388306 548.763428,423.559296 
	C556.772522,460.285553 559.296997,497.570801 559.837341,535.046997 
	C559.950134,542.865906 560.108093,550.684143 560.245239,559.003479 
z"/>
<path fill="#FF0114" opacity="1.000000" stroke="none" 
	d="
M965.815552,351.955383 
	C959.016235,402.464722 944.785706,449.876984 915.293152,491.647064 
	C894.662231,520.866455 868.385803,543.971375 836.407715,559.976501 
	C807.418701,574.485535 777.700317,587.531128 748.602966,601.831238 
	C716.169678,617.770935 684.515503,635.134094 655.652588,657.134827 
	C635.354431,672.606995 617.919739,690.790100 603.561584,711.906189 
	C602.635803,713.267639 601.671021,714.602478 600.263123,716.606262 
	C599.903259,714.513672 599.472961,713.032593 599.417480,711.537659 
	C598.307678,681.608521 597.104492,651.681946 596.209717,621.746094 
	C595.518616,598.624939 594.793762,575.490723 594.852173,552.364258 
	C594.948425,514.247192 596.516663,476.189178 603.235901,438.546448 
	C609.063538,405.899200 618.375671,374.448151 636.735168,346.391388 
	C651.469360,323.874756 670.820190,305.533600 691.086243,288.145142 
	C724.926147,259.110138 762.431580,235.170166 799.486023,210.615143 
	C841.994385,182.445892 883.784912,153.322784 921.062256,118.284111 
	C929.796631,110.074303 938.105042,101.409706 946.540161,92.885735 
	C947.449280,91.967072 947.894043,90.588882 948.554260,89.423897 
	C949.069580,89.734779 949.584900,90.045654 950.100220,90.356537 
	C951.990723,101.090530 954.189636,111.781029 955.710571,122.567131 
	C959.422607,148.892014 963.293091,175.209473 966.183350,201.630173 
	C968.188721,219.961792 969.538086,238.455902 969.626221,256.884827 
	C969.752625,283.308258 968.542847,309.740997 967.706848,336.163544 
	C967.544556,341.293182 966.481445,346.394318 965.815552,351.955383 
z"/>
<path fill="#FFFDFD" opacity="1.000000" stroke="none" 
	d="
M649.082764,1005.818359 
	C668.721985,1007.480652 688.155212,1006.701660 706.197815,997.921509 
	C712.449402,994.879272 718.663635,990.502014 723.099854,985.225342 
	C735.955139,969.934448 732.831116,949.638550 715.809387,939.178223 
	C707.743591,934.221558 698.473633,930.644714 689.280762,928.214966 
	C665.669556,921.974304 641.750000,916.910950 618.046143,911.005676 
	C604.598816,907.655640 591.859192,902.488464 580.494690,894.230469 
	C555.863953,876.332581 550.063904,843.859192 566.884216,818.507324 
	C576.143738,804.551331 589.139282,795.642029 604.666382,790.555725 
	C641.011841,778.649597 677.464294,778.991272 712.999207,793.182617 
	C739.600342,803.806152 754.650513,824.284241 757.701233,853.094788 
	C757.784302,853.879272 757.711670,854.680237 757.711670,855.841858 
	C745.974670,856.622131 734.441895,857.388794 722.633545,858.173828 
	C721.336609,848.327881 718.429749,839.602966 712.579102,832.066833 
	C702.685852,819.323669 688.769043,814.335083 673.536377,812.410828 
	C656.747437,810.289917 639.979187,810.680786 623.494202,815.024231 
	C613.772400,817.585693 605.312256,822.281250 598.983643,830.341553 
	C587.904785,844.451599 591.235046,863.643494 607.334839,871.487000 
	C617.772339,876.572021 629.201904,879.951660 640.504639,882.861023 
	C664.222229,888.965942 688.262268,893.826599 711.949768,900.037781 
	C726.931213,903.966125 740.260193,911.610291 750.939819,923.117920 
	C771.251221,945.004150 771.093262,979.055298 750.711975,1002.870239 
	C736.667419,1019.280945 718.219910,1028.052490 697.557739,1032.197876 
	C663.903198,1038.950073 630.520691,1037.540527 598.445312,1024.728760 
	C569.761902,1013.271729 552.104187,992.122620 547.463074,961.017639 
	C547.076355,958.426025 547.090027,955.774658 546.894470,952.798340 
	C558.527527,951.881836 569.761230,950.996826 581.142395,950.100159 
	C582.150757,954.397278 582.992737,958.431091 584.048157,962.408264 
	C589.308655,982.231812 603.799683,992.800842 621.798645,999.713745 
	C625.482910,1001.128784 629.392578,1001.957275 633.825439,1003.357422 
	C639.329285,1004.378540 644.205994,1005.098450 649.082764,1005.818359 
z"/>
<path fill="#FFFDFD" opacity="1.000000" stroke="none" 
	d="
M421.069733,783.840454 
	C438.128387,786.183960 454.735870,790.094543 469.340698,799.698486 
	C489.290375,812.817078 499.969879,831.435303 501.532867,855.820190 
	C489.721222,856.613953 478.191681,857.388733 466.419495,858.179810 
	C464.878357,848.315613 462.118073,839.403381 456.054596,831.786804 
	C446.516449,819.805542 433.471313,814.652832 418.865234,812.739197 
	C398.692627,810.096252 378.583679,810.011719 359.406128,817.863953 
	C348.039246,822.518127 339.181549,830.246948 336.915710,843.189697 
	C334.741211,855.610352 340.004700,865.923889 351.155273,871.831909 
	C364.188782,878.737488 378.515167,881.598633 392.678223,884.977234 
	C414.738800,890.239685 436.956390,894.955139 458.772156,901.093994 
	C473.666229,905.285156 486.760437,913.484619 496.847137,925.608398 
	C515.940857,948.558167 513.536621,983.335510 491.529724,1006.104431 
	C477.588043,1020.528870 460.202728,1028.565063 440.925446,1032.266113 
	C405.702454,1039.028687 370.968872,1037.411621 337.709259,1022.804871 
	C319.242645,1014.694702 305.490234,1001.296448 296.929718,982.016235 
	C295.054047,975.868469 293.377441,970.406616 291.700836,964.944702 
	C291.300873,961.173828 290.900879,957.402893 290.423340,952.900513 
	C300.875092,952.017822 311.052277,951.158325 321.871002,950.181213 
	C322.682434,950.008301 322.852295,949.953003 323.022186,949.897705 
	C323.876312,950.900208 325.343170,951.818054 325.495117,952.917664 
	C329.484283,981.783875 348.719666,996.031677 374.674194,1002.520996 
	C401.416687,1009.207336 428.161255,1008.994080 453.520630,996.255249 
	C468.399994,988.780945 475.933960,975.355103 474.048126,960.696655 
	C472.712097,950.311218 466.431854,943.224426 457.911377,937.903442 
	C445.392303,930.085327 431.041962,927.536011 417.043030,924.023010 
	C394.326416,918.322266 371.468384,913.132629 348.921356,906.828308 
	C335.827972,903.167236 323.982849,896.289490 314.991974,885.817505 
	C310.643188,880.752319 307.737457,874.448120 304.070312,867.982727 
	C303.095520,864.040405 302.228790,860.820312 301.362030,857.600220 
	C298.223969,829.761841 314.371826,805.498413 339.850983,793.946167 
	C360.293762,784.677246 381.902740,782.183655 404.836731,782.619263 
	C410.785217,783.128357 415.927460,783.484375 421.069733,783.840454 
z"/>
<path fill="#FFFFFF" opacity="1.000000" stroke="none" 
	d="
M855.009644,786.443604 
	C859.301147,786.284058 858.495056,789.400513 858.495544,791.934021 
	C858.505859,841.393188 858.503479,890.852417 858.503662,940.311584 
	C858.503723,968.788086 858.503601,997.264587 858.503601,1025.741089 
	C858.503601,1027.549805 858.503662,1029.358643 858.503662,1031.596558 
	C846.198242,1031.596558 834.301025,1031.600098 822.403931,1031.562744 
	C822.229065,1031.562256 822.055725,1031.054077 821.786926,1029.939819 
	C821.738953,1027.100220 821.826477,1025.103760 821.826660,1023.107300 
	C821.833618,946.307373 821.832520,869.507385 821.832520,792.707458 
	C821.832520,790.796143 821.832458,788.884827 821.832458,786.443604 
	C833.406250,786.443604 844.207947,786.443604 855.009644,786.443604 
z"/>
<path fill="#FF0013" opacity="1.000000" stroke="none" 
	d="
M855.008057,786.277771 
	C844.207947,786.443604 833.406250,786.443604 821.832458,786.443604 
	C821.832458,788.884827 821.832520,790.796143 821.832520,792.707458 
	C821.832520,869.507385 821.833618,946.307373 821.826660,1023.107300 
	C821.826477,1025.103760 821.738953,1027.100220 821.577148,1029.554199 
	C821.157776,1030.009766 820.853516,1030.013794 820.302429,1029.560181 
	C820.008545,991.483582 819.926025,953.870789 819.923950,916.258057 
	C819.921509,872.486450 819.989563,828.714905 820.026978,784.943298 
	C820.026978,784.943298 819.985413,784.985474 820.436707,784.968994 
	C832.265076,785.117920 843.642151,785.283264 855.019226,785.448608 
	C855.011169,785.669617 855.006958,785.890747 855.008057,786.277771 
z"/>
<path fill="#FF5360" opacity="1.000000" stroke="none" 
	d="
M819.752441,785.261353 
	C819.989563,828.714905 819.921509,872.486450 819.923950,916.258057 
	C819.926025,953.870789 820.008545,991.483582 820.074402,1029.569458 
	C819.757812,1028.307373 819.129944,1026.572144 819.128906,1024.836792 
	C819.080383,946.566956 819.084656,868.297119 819.103088,790.027283 
	C819.103455,788.544617 819.347473,787.062012 819.752441,785.261353 
z"/>
<path fill="#FF404E" opacity="1.000000" stroke="none" 
	d="
M649.419800,1005.590576 
	C644.205994,1005.098450 639.329285,1004.378540 634.224548,1003.339722 
	C636.490173,1002.997986 638.986877,1002.884583 641.476868,1002.968689 
	C650.376282,1003.269104 659.273010,1003.647644 668.171814,1003.969299 
	C669.961853,1004.033936 671.756287,1003.978699 673.548706,1003.978699 
	C673.548035,1004.440063 673.547424,1004.901489 673.546814,1005.362854 
	C665.616821,1005.362854 657.686768,1005.362854 649.419800,1005.590576 
z"/>
<path fill="#FF2939" opacity="1.000000" stroke="none" 
	d="
M291.357361,965.059082 
	C293.377441,970.406616 295.054047,975.868469 296.771301,981.696533 
	C296.504822,982.172607 296.053650,982.472046 295.911713,982.364197 
	C292.800568,980.001892 289.648895,968.841858 291.357361,965.059082 
z"/>
<path fill="#FF3E4C" opacity="1.000000" stroke="none" 
	d="
M421.283112,783.622192 
	C415.927460,783.484375 410.785217,783.128357 405.295319,782.566284 
	C408.915527,781.965820 412.877686,781.367737 416.853455,781.256165 
	C419.094940,781.193359 421.358917,781.932068 424.121399,782.394958 
	C423.034027,782.812927 422.265259,783.108459 421.283112,783.622192 
z"/>
<path fill="#FF5360" opacity="1.000000" stroke="none" 
	d="
M855.069824,785.124146 
	C843.642151,785.283264 832.265076,785.117920 820.415649,784.989868 
	C821.677490,784.713684 823.415771,784.110413 825.145264,784.134583 
	C835.138123,784.274170 845.128967,784.562073 855.069824,785.124146 
z"/>
<path fill="#FF3D4B" opacity="1.000000" stroke="none" 
	d="
M301.155457,857.867737 
	C302.228790,860.820312 303.095520,864.040405 303.939789,867.648376 
	C299.136139,866.942993 301.117889,862.627563 299.991089,859.401611 
	C299.991913,859.009583 299.966370,859.034485 299.966370,859.034485 
	C300.293884,858.734741 300.621368,858.434998 301.155457,857.867737 
z"/>
<path fill="#FF3B4A" opacity="1.000000" stroke="none" 
	d="
M557.967651,949.968567 
	C553.952820,950.315979 549.938049,950.663330 545.461609,951.005371 
	C545.000000,951.000000 544.997559,950.997559 544.997559,950.997559 
	C549.027405,950.664734 553.057190,950.331848 557.539429,949.996155 
	C557.991882,949.993286 557.967651,949.968567 557.967651,949.968567 
z"/>
<path fill="#FF3B4A" opacity="1.000000" stroke="none" 
	d="
M558.000610,950.007568 
	C561.459351,949.546997 564.909241,949.072205 568.359192,948.597412 
	C568.401001,949.064575 568.442810,949.531738 568.484619,949.998901 
	C565.285522,949.998901 562.086487,949.998901 558.427490,949.983765 
	C557.967651,949.968567 557.991882,949.993286 558.000610,950.007568 
z"/>
<path fill="#FF2939" opacity="1.000000" stroke="none" 
	d="
M322.933899,949.516968 
	C322.852295,949.953003 322.682434,950.008301 322.249207,950.013916 
	C319.799835,949.497559 317.613770,949.030884 315.427734,948.564209 
	C315.471100,948.273499 315.514465,947.982727 315.557800,947.692017 
	C317.987091,948.173462 320.416351,948.654846 322.933899,949.516968 
z"/>
<path fill="#FF3D4B" opacity="1.000000" stroke="none" 
	d="
M299.022400,845.009460 
	C299.022400,842.761597 299.022400,840.513794 299.022400,838.265930 
	C299.369293,838.283325 299.716217,838.300720 300.063110,838.318115 
	C299.861633,840.340393 299.660156,842.362671 299.225769,844.688110 
	C298.992920,844.991272 299.022400,845.009460 299.022400,845.009460 
z"/>
<path fill="#FF3D4B" opacity="1.000000" stroke="none" 
	d="
M298.966919,851.034119 
	C299.310913,853.414429 299.654877,855.794678 299.982605,858.604736 
	C299.966370,859.034485 299.991913,859.009583 300.006531,859.000610 
	C299.681824,856.610474 299.342468,854.229248 298.997925,851.428528 
	C298.992676,851.008972 298.966888,851.034119 298.966919,851.034119 
z"/>
<path fill="#FF3D4B" opacity="1.000000" stroke="none" 
	d="
M299.007507,850.999634 
	C298.837708,849.158203 298.653076,847.326172 298.745422,845.251831 
	C299.022400,845.009460 298.992920,844.991272 298.979919,844.978516 
	C298.976227,846.699463 298.985535,848.433167 298.980865,850.600464 
	C298.966888,851.034119 298.992676,851.008972 299.007507,850.999634 
z"/>
<path fill="#FF3B4A" opacity="1.000000" stroke="none" 
	d="
M545.001221,951.001221 
	C545.004761,951.640503 545.031494,952.279724 545.002563,952.916382 
	C544.974487,953.535889 544.889343,954.152832 544.100769,954.707214 
	C544.228333,953.613342 544.355835,952.519409 544.740479,951.211548 
	C544.997559,950.997559 545.000000,951.000000 545.001221,951.001221 
z"/>
</svg>